# xmcd
#
# Track frame offsets: 
#        150
#        13362
#        23840
#        36890
#        46250
#        57552
#        70050
#        79567
#        88527
#        103015
#        115227
#        127612
#        139627
#        150425
#        163410
#        174785
#
# Disc length: 2387 seconds
#
# Revision: 0
# Processed by: cddbd v1.4PL0 Copyright (c) Steve Scherf et al.
# Submitted via: ExactAudioCopy v0.95a1
#
DISCID=c4095110
DTITLE=Lester Flatt - Country Legends
DYEAR=1900
DGENRE=Country
TTITLE0=Roll in My Sweet Baby's Arms
TTITLE1=It's Sad to Be Alone
TTITLE2=Little Cabin Home on the Hill
TTITLE3=Cedar Hill
TTITLE4=Everything We Had Goin' Is Gone
TTITLE5=Backin' to Birmingham
TTITLE6=Pick Away
TTITLE7=McCormick String Picnic
TTITLE8=Over the Hills to the Poor House
TTITLE9=You're Still Mine Tonight
TTITLE10=Don't Get Above Your Rasin'
TTITLE11=One Bad Case of the Blues
TTITLE12=Foggy Mountain Breakdown
TTITLE13=Father's Table Grace
TTITLE14=I Can't Tell the Boys from the Girls
TTITLE15=The Martha White Theme
EXTD=
EXTT0=
EXTT1=
EXTT2=
EXTT3=
EXTT4=
EXTT5=
EXTT6=
EXTT7=
EXTT8=
EXTT9=
EXTT10=
EXTT11=
EXTT12=
EXTT13=
EXTT14=
EXTT15=
PLAYORDER=
